<?xml version="1.0" encoding="UTF-8"?>
<svg width="315px" height="75px" viewBox="0 0 315 75" version="1.1" xmlns="http://www.w3.org/2000/svg" xmlns:xlink="http://www.w3.org/1999/xlink" xmlns:sketch="http://www.bohemiancoding.com/sketch/ns">
    <!-- Generator: Sketch 3.4.2 (15855) - http://www.bohemiancoding.com/sketch -->
    <title>lively-next-logo copy</title>
    <desc>Created with Sketch.</desc>
    <defs></defs>
    <g id="Page-1" stroke="none" stroke-width="1" fill="none" fill-rule="evenodd" sketch:type="MSPage">
        <g id="lively-next-logo" sketch:type="MSLayerGroup">
            <g id="logo">
                <rect id="background" sketch:type="MSShapeGroup" x="0" y="0" width="315" height="75"></rect>
                <path d="M42.1131079,16.707 C41.3051079,19.017 40.6071079,21.362 39.7991079,23.671 C39.3611079,24.926 38.8941079,25.518 38.2011079,25.518 C37.7431079,25.518 37.1851079,25.26 36.4741079,24.767 C34.4011079,23.32 32.4031079,21.765 30.3181079,20.328 C29.2271079,19.573 28.1851079,19.196 27.2011079,19.196 C25.8471079,19.196 24.5981079,19.904 23.4551079,21.324 C22.3161079,22.737 21.2691079,24.231 20.2321079,25.725 C18.2761079,28.525 18.6441079,30.85 21.3711079,32.903 C23.3311079,34.377 25.3511079,35.768 27.3091079,37.244 C29.1511079,38.629 29.1281079,39.467 27.2371079,40.87 C25.2061079,42.382 23.1051079,43.8 21.1121079,45.353 C18.7341079,47.203 18.3591079,49.533 20.0161079,52.014 C21.1121079,53.657 22.2641079,55.271 23.5191079,56.797 C24.6651079,58.198 25.8721079,58.887 27.1821079,58.887 C28.1801079,58.887 29.2361079,58.488 30.3801079,57.695 C32.3301079,56.344 34.2171079,54.901 36.1421079,53.519 C37.0871079,52.838 37.7441079,52.477 38.2531079,52.477 C38.9471079,52.477 39.3641079,53.16 39.8701079,54.638 C40.6791079,57.028 41.3851079,59.458 42.2551079,61.825 C43.0511079,63.995 44.5051079,65.094 46.4401079,65.094 C47.0181079,65.094 47.6391079,64.996 48.3011079,64.8 C49.9641079,64.307 51.6201079,63.78 53.2611079,63.216 C56.7211079,62.031 57.8041079,59.944 56.7361079,56.407 C56.0281079,54.066 55.2311079,51.751 54.4451079,49.437 C53.8041079,47.55 54.5561079,46.737 56.4381079,46.734 C56.5971079,46.734 56.7601079,46.732 56.9221079,46.732 C58.1971079,46.732 59.4731079,46.743 60.7511079,46.743 C61.9241079,46.743 63.0961079,46.734 64.2701079,46.698 C67.3941079,46.6 69.0431079,44.909 69.1441079,41.781 C69.1951079,40.119 69.1661079,38.457 69.1531079,36.795 C69.1211079,33.164 67.4641079,31.391 63.8471079,31.25 C63.0181079,31.219 62.1881079,31.21 61.3591079,31.21 C60.1301079,31.21 58.8991079,31.23 57.6691079,31.23 L57.2011079,31.23 C54.0081079,31.214 53.7631079,30.838 54.7541079,27.742 C55.6431079,24.969 56.4921079,22.182 57.1611079,20.032 C57.0961079,17.354 56.0281079,15.844 53.9461079,15.075 C52.1721079,14.422 50.3571079,13.865 48.5381079,13.334 C47.7771079,13.111 47.0821079,13 46.4511079,13 C44.3821079,13 42.9871079,14.207 42.1131079,16.707 L42.1131079,16.707 Z M47.1072198,17.3244874 C48.662632,17.7795081 50.4945841,18.3315332 52.2426758,18.9765625 C52.4972522,19.0705668 52.6120612,19.1535705 52.6310297,19.1735715 C52.6310297,19.1755715 52.7128935,19.2975771 52.7658054,19.6605936 L52.3425097,21.0286558 C51.8123917,22.7477339 51.4147256,24.5323424 50.7987504,26.4574299 C50.2486656,28.1685077 49.4240375,30.7536252 51.0393501,32.9837265 C52.6516676,35.2108278 55.3102445,35.2228283 57.0693179,35.2288286 L57.5565073,35.2318287 C58.1814675,35.2318287 58.8064278,35.2248284 59.4323864,35.2208282 C60.0343848,35.216828 59.7196057,35.1777325 60.3216041,35.1777325 C61.2290943,35.1777325 59.8326659,35.1709924 60.5115364,35.1969935 C61.3661146,35.228995 61.6905748,35.3910024 61.7155333,35.3910024 C61.7404918,35.4340043 61.9132044,35.77802 61.9201928,36.7320633 L61.9291778,37.5501005 C61.9431546,38.9391636 61.9571313,40.2492232 61.9142028,41.5512824 C61.900226,42.0403046 61.8203589,42.3173172 61.773437,42.4243221 C61.6726047,42.4653239 61.4150332,42.5383272 60.963784,42.5533279 C59.9844134,42.5833293 61.0793434,42.6160706 59.714614,42.6160706 C59.081667,42.6160706 59.3704893,42.6461657 58.7395391,42.6441656 C58.0976071,42.6401655 57.4506834,42.6361653 56.8107481,42.6361653 L56.3165702,42.6391654 C53.3794568,42.6441656 51.8420147,43.9352243 51.0683019,45.0172735 C50.3015776,46.0953225 49.5807768,47.954407 50.5102304,50.6935315 L50.7508301,51.3915633 C51.4316973,53.4066548 50.5161236,50.3005423 51.1271071,52.3386349 C51.3517333,53.0806686 51.3577234,53.4616859 51.3467417,53.6016923 C51.2409177,53.6906964 50.935426,53.903706 50.2196169,54.1487172 C48.6372495,54.6917419 47.027927,55.2057652 45.4275895,55.6807868 C45.0582041,55.7897918 44.8265894,55.8067925 44.7207655,55.8067925 C44.5879864,55.729789 44.463194,55.5377803 44.3344083,55.1877644 C43.8362371,53.8277026 44.1361487,54.9436411 43.668926,53.4825746 C43.3604393,52.5175308 43.9371662,54.2476931 43.6107093,53.2876494 C43.1993937,52.0745943 41.9474765,48.3824265 38.1727566,48.3824265 C36.3647646,48.3824265 34.9201681,49.3124687 33.7071861,50.1835083 C32.9394634,50.7375335 34.349414,49.7210458 33.586683,50.2830714 C32.417628,51.1461106 33.8520361,50.0521277 32.717923,50.8401635 C32.2796522,51.1441773 32.0101006,51.2531823 31.8952916,51.2921841 C31.7964561,51.224181 31.5888015,51.0571734 31.2982849,50.7021572 C30.267999,49.4421 29.2017729,47.9840337 28.0367113,46.2359542 C27.7941149,45.8719377 27.7272262,45.6519277 27.7092561,45.5689239 C27.7521846,45.4949205 27.8899554,45.3019118 28.2493575,45.0178989 C29.3734872,44.1428591 27.9899944,45.2228414 29.2159547,44.3458015 C30.0665396,43.7347737 28.7474378,44.6992591 29.5870409,44.0732306 C30.4226507,43.4512023 32.6429567,41.7991272 32.6489468,38.9969999 C32.6599285,36.2088731 30.4935328,34.5767989 29.6788881,33.9607709 C28.6795508,33.2097368 27.66424,32.4737034 26.6449358,31.7416701 C25.6755486,31.0436383 27.6391524,32.5959291 26.6857386,31.8768964 C26.2055376,31.5138799 26.0108614,31.2668687 25.9419761,31.1598638 C25.9759196,31.0368582 26.0857369,30.7388447 26.4271688,30.2438222 C27.4065394,28.8417585 28.4128652,27.3926926 29.4790913,26.0696325 C29.7805896,25.6926153 30.0072126,25.5176074 30.1100415,25.4596047 C30.2278455,25.486606 30.494402,25.5896106 30.8927393,25.8646231 C31.9230252,26.5776555 29.9973583,25.0663667 31.0605894,25.8514023 C32.0399599,26.5734352 33.0522757,27.3154689 34.0875533,28.0395018 C34.9960418,28.6755307 36.4036999,29.518569 38.120843,29.518569 C39.8619463,29.518569 42.214033,28.726533 43.5298439,24.9593618 C43.9441546,23.7683077 44.3345051,22.5702532 44.7238574,21.3701986 C45.0872528,20.2421474 45.2533042,19.2645756 45.6416581,18.1455247 C45.8543043,17.5424973 46.0370003,17.2604845 46.1238558,17.1494795 C46.2935735,17.1494795 46.5950719,17.1714805 47.1072198,17.3244874 L47.1072198,17.3244874 Z" id="engine" fill="#FF7700" sketch:type="MSShapeGroup"></path>
                <g id="text:livelyweb" transform="translate(84.000000, 10.000000)" font-family="Helvetica" fill="#FF7700" font-size="46" sketch:type="MSTextLayer">
                    <g id="LIVELY" font-weight="bold">
                        <text id="lively">
                            <tspan x="0" y="44">lively</tspan>
                        </text>
                    </g>
                    <g id="WEB" transform="translate(110.000000, 0.000000)" font-weight="normal">
                        <text id=".next">
                            <tspan x="0" y="44">.next</tspan>
                        </text>
                    </g>
                </g>
            </g>
        </g>
    </g>
</svg>