<?xml version="1.0" encoding="UTF-8" standalone="no"?>
<!DOCTYPE svg PUBLIC "-//W3C//DTD SVG 1.1//EN" "http://www.w3.org/Graphics/SVG/1.1/DTD/svg11.dtd">
<svg width="100%" height="100%" viewBox="0 0 800 400" version="1.1" xmlns="http://www.w3.org/2000/svg" xmlns:xlink="http://www.w3.org/1999/xlink" xml:space="preserve" xmlns:serif="http://www.serif.com/" style="fill-rule:evenodd;clip-rule:evenodd;stroke-linejoin:round;stroke-miterlimit:2;">
    <g id="logo" transform="matrix(12.7838,0,0,13.2641,-425.847,-36.9289)">
        <g id="engine" transform="matrix(0.205992,0,0,0.205992,29.2716,9.25091)">
            <path d="M57.113,14.707C56.305,17.017 55.607,19.362 54.799,21.671C54.361,22.926 53.894,23.518 53.201,23.518C52.743,23.518 52.185,23.26 51.474,22.767C49.401,21.32 47.403,19.765 45.318,18.328C44.227,17.573 43.185,17.196 42.201,17.196C40.847,17.196 39.598,17.904 38.455,19.324C37.316,20.737 36.269,22.231 35.232,23.725C33.276,26.525 33.644,28.85 36.371,30.903C38.331,32.377 40.351,33.768 42.309,35.244C44.151,36.629 44.128,37.467 42.237,38.87C40.206,40.382 38.105,41.8 36.112,43.353C33.734,45.203 33.359,47.533 35.016,50.014C36.112,51.657 37.264,53.271 38.519,54.797C39.665,56.198 40.872,56.887 42.182,56.887C43.18,56.887 44.236,56.488 45.38,55.695C47.33,54.344 49.217,52.901 51.142,51.519C52.087,50.838 52.744,50.477 53.253,50.477C53.947,50.477 54.364,51.16 54.87,52.638C55.679,55.028 56.385,57.458 57.255,59.825C58.051,61.995 59.505,63.094 61.44,63.094C62.018,63.094 62.639,62.996 63.301,62.8C64.964,62.307 66.62,61.78 68.261,61.216C71.721,60.031 72.804,57.944 71.736,54.407C71.028,52.066 70.231,49.751 69.445,47.437C68.804,45.55 69.556,44.737 71.438,44.734C71.597,44.734 71.76,44.732 71.922,44.732C73.197,44.732 74.473,44.743 75.751,44.743C76.924,44.743 78.096,44.734 79.27,44.698C82.394,44.6 84.043,42.909 84.144,39.781C84.195,38.119 84.166,36.457 84.153,34.795C84.121,31.164 82.464,29.391 78.847,29.25C78.018,29.219 77.188,29.21 76.359,29.21C75.13,29.21 73.899,29.23 72.669,29.23L72.201,29.23C69.008,29.214 68.763,28.838 69.754,25.742C70.643,22.969 71.492,20.182 72.161,18.032C72.096,15.354 71.028,13.844 68.946,13.075C67.172,12.422 65.357,11.865 63.538,11.334C62.777,11.111 62.082,11 61.451,11C59.382,11 57.987,12.207 57.113,14.707ZM62.107,15.324C63.663,15.78 65.495,16.332 67.243,16.977C67.497,17.071 67.612,17.154 67.631,17.174C67.631,17.176 67.713,17.298 67.766,17.661L67.343,19.029C66.812,20.748 66.415,22.532 65.799,24.457C65.249,26.169 64.424,28.754 66.039,30.984C67.652,33.211 70.31,33.223 72.069,33.229L72.557,33.232C73.181,33.232 73.806,33.225 74.432,33.221C75.034,33.217 74.72,33.178 75.322,33.178C76.229,33.178 74.833,33.171 75.512,33.197C76.366,33.229 76.691,33.391 76.716,33.391C76.74,33.434 76.913,33.778 76.92,34.732L76.929,35.55C76.943,36.939 76.957,38.249 76.914,39.551C76.9,40.04 76.82,40.317 76.773,40.424C76.673,40.465 76.415,40.538 75.964,40.553C74.984,40.583 76.079,40.616 74.715,40.616C74.082,40.616 74.37,40.646 73.74,40.644C73.098,40.64 72.451,40.636 71.811,40.636L71.317,40.639C68.379,40.644 66.842,41.935 66.068,43.017C65.302,44.095 64.581,45.954 65.51,48.694L65.751,49.392C66.432,51.407 65.516,48.301 66.127,50.339C66.352,51.081 66.358,51.462 66.347,51.602C66.241,51.691 65.935,51.904 65.22,52.149C63.637,52.692 62.028,53.206 60.428,53.681C60.058,53.79 59.827,53.807 59.721,53.807C59.588,53.73 59.463,53.538 59.334,53.188C58.836,51.828 59.136,52.944 58.669,51.483C58.36,50.518 58.937,52.248 58.611,51.288C58.199,50.075 56.947,46.382 53.173,46.382C51.365,46.382 49.92,47.312 48.707,48.184C47.939,48.738 49.349,47.721 48.587,48.283C47.418,49.146 48.852,48.052 47.718,48.84C47.28,49.144 47.01,49.253 46.895,49.292C46.796,49.224 46.589,49.057 46.298,48.702C45.268,47.442 44.202,45.984 43.037,44.236C42.794,43.872 42.727,43.652 42.709,43.569C42.752,43.495 42.89,43.302 43.249,43.018C44.373,42.143 42.99,43.223 44.216,42.346C45.067,41.735 43.747,42.699 44.587,42.073C45.423,41.451 47.643,39.799 47.649,36.997C47.66,34.209 45.494,32.577 44.679,31.961C43.68,31.21 42.664,30.474 41.645,29.742C40.676,29.044 42.639,30.596 41.686,29.877C41.206,29.514 41.011,29.267 40.942,29.16C40.976,29.037 41.086,28.739 41.427,28.244C42.407,26.842 43.413,25.393 44.479,24.07C44.781,23.693 45.007,23.518 45.11,23.46C45.228,23.487 45.494,23.59 45.893,23.865C46.923,24.578 44.997,23.066 46.061,23.851C47.04,24.573 48.052,25.315 49.088,26.04C49.996,26.676 51.404,27.519 53.121,27.519C54.862,27.519 57.214,26.727 58.53,22.959C58.944,21.768 59.335,20.57 59.724,19.37C60.087,18.242 60.253,17.265 60.642,16.146C60.854,15.542 61.037,15.26 61.124,15.149C61.294,15.149 61.595,15.171 62.107,15.324Z" style="fill:rgb(255,119,0);fill-rule:nonzero;"/>
        </g>
        <g transform="matrix(0.097165,0,0,0.0574134,18.2112,8.22785)">
            <rect x="320.229" y="88.745" width="14.25" height="123.106" style="fill:rgb(255,119,0);"/>
            <path d="M361.16,211.851L346.91,211.851L346.91,125.132L361.16,125.132L361.16,211.851ZM346.075,102.691C346.075,99.218 346.788,96.359 348.213,94.115C349.638,91.871 351.578,90.749 354.035,90.749C356.459,90.749 358.392,91.871 359.833,94.115C361.275,96.359 361.996,99.218 361.996,102.691C361.996,106.217 361.267,109.102 359.809,111.347C358.351,113.591 356.427,114.713 354.035,114.713C351.644,114.713 349.719,113.591 348.262,111.347C346.804,109.102 346.075,106.217 346.075,102.691Z" style="fill:rgb(255,119,0);fill-rule:nonzero;"/>
            <path d="M392.755,183.559L402.632,125.132L417.471,125.132L399.536,211.851L385.974,211.851L368.039,125.132L382.879,125.132L392.755,183.559Z" style="fill:rgb(255,119,0);fill-rule:nonzero;"/>
            <path d="M447.543,213.454C439.747,213.454 433.4,209.554 428.503,201.753C423.605,193.952 421.157,183.559 421.157,170.575L421.157,168.331C421.157,159.622 422.189,151.834 424.252,144.968C426.316,138.102 429.24,132.813 433.023,129.099C436.807,125.386 441.123,123.529 445.971,123.529C453.243,123.529 458.968,127.269 463.145,134.75C467.321,142.23 469.41,152.836 469.41,166.568L469.41,176.025L435.554,176.025C436.013,181.689 437.397,186.231 439.706,189.65C442.015,193.07 444.939,194.78 448.477,194.78C453.948,194.78 458.223,191.547 461.302,185.082L468.279,197.826C466.15,202.741 463.267,206.575 459.631,209.327C455.995,212.078 451.966,213.454 447.543,213.454ZM445.922,142.283C443.105,142.283 440.82,143.833 439.067,146.932C437.315,150.031 436.193,154.466 435.701,160.236L455.455,160.236L455.455,158.393C455.389,153.264 454.537,149.296 452.899,146.491C451.261,143.686 448.936,142.283 445.922,142.283Z" style="fill:rgb(255,119,0);fill-rule:nonzero;"/>
            <rect x="478.205" y="88.745" width="14.25" height="123.106" style="fill:rgb(255,119,0);"/>
            <path d="M524.001,179.071L533.828,125.132L549.061,125.132L527.686,225.316L526.507,229.884C523.329,241.212 518.088,246.876 510.783,246.876C508.719,246.876 506.623,246.368 504.493,245.353L504.493,227.801L506.656,227.881C509.342,227.881 511.348,227.213 512.675,225.877C514.002,224.541 515.042,222.324 515.795,219.225L517.466,212.092L498.843,125.132L514.124,125.132L524.001,179.071Z" style="fill:rgb(255,119,0);fill-rule:nonzero;"/>
            <path d="M562.77,191.334C564.998,191.334 566.718,192.362 567.93,194.419C569.142,196.476 569.748,199.054 569.748,202.153C569.748,205.199 569.142,207.724 567.93,209.727C566.718,211.731 564.998,212.733 562.77,212.733C560.641,212.733 558.954,211.744 557.709,209.767C556.464,207.79 555.842,205.252 555.842,202.153C555.842,199.054 556.448,196.476 557.66,194.419C558.872,192.362 560.575,191.334 562.77,191.334Z" style="fill:rgb(255,119,0);fill-rule:nonzero;"/>
            <path d="M592.793,125.132L593.088,136.032C597.15,127.697 602.457,123.529 609.008,123.529C620.244,123.529 625.912,133.868 626.01,154.546L626.01,211.851L616.919,211.851L616.919,154.466C616.887,148.214 616.01,143.592 614.291,140.6C612.571,137.608 609.893,136.112 606.257,136.112C603.308,136.112 600.721,137.394 598.493,139.959C596.265,142.524 594.529,145.89 593.284,150.058L593.284,211.851L584.194,211.851L584.194,125.132L592.793,125.132Z" style="fill:rgb(255,119,0);fill-rule:nonzero;"/>
            <path d="M661.782,213.454C654.575,213.454 648.711,209.594 644.191,201.873C639.67,194.152 637.41,183.826 637.41,170.896L637.41,168.171C637.41,159.569 638.417,151.888 640.432,145.129C642.446,138.37 645.263,133.08 648.883,129.259C652.503,125.439 656.426,123.529 660.652,123.529C667.564,123.529 672.936,127.242 676.769,134.669C680.601,142.096 682.518,152.729 682.518,166.568L682.518,172.739L646.5,172.739C646.631,181.288 648.163,188.194 651.094,193.457C654.026,198.72 657.752,201.352 662.273,201.352C665.483,201.352 668.202,200.283 670.43,198.146C672.657,196.009 674.607,193.177 676.277,189.65L681.83,196.703C677.375,207.871 670.692,213.454 661.782,213.454ZM660.652,135.711C656.983,135.711 653.903,137.889 651.414,142.243C648.924,146.598 647.385,152.703 646.795,160.557L673.427,160.557L673.427,159.435C673.165,151.901 671.92,146.064 669.693,141.923C667.465,137.782 664.452,135.711 660.652,135.711Z" style="fill:rgb(255,119,0);fill-rule:nonzero;"/>
            <path d="M710.87,156.79L722.663,125.132L733.276,125.132L715.882,168.011L733.817,211.851L723.302,211.851L711.017,179.392L698.733,211.851L688.168,211.851L706.104,168.011L688.709,125.132L699.224,125.132L710.87,156.79Z" style="fill:rgb(255,119,0);fill-rule:nonzero;"/>
            <path d="M755.241,104.133L755.241,125.132L765.166,125.132L765.166,136.593L755.241,136.593L755.241,190.372C755.241,193.845 755.683,196.45 756.567,198.186C757.452,199.923 758.959,200.791 761.088,200.791C762.136,200.791 763.578,200.47 765.412,199.829L765.412,211.851C763.021,212.92 760.695,213.454 758.435,213.454C754.373,213.454 751.31,211.451 749.246,207.443C747.182,203.436 746.15,197.745 746.15,190.372L746.15,136.593L736.47,136.593L736.47,125.132L746.15,125.132L746.15,104.133L755.241,104.133Z" style="fill:rgb(255,119,0);fill-rule:nonzero;"/>
        </g>
    </g>
</svg>
